<svg width="1000" height="1000" viewBox="0 0 574 574" fill="none" xmlns="http://www.w3.org/2000/svg">
<path d="M574 438.995H0V439.282H574V438.995Z" fill="#EBEBEB"/>
<path d="M158.034 446.813H120.012V447.1H158.034V446.813Z" fill="#EBEBEB"/>
<path d="M243.25 457.329H196.469V457.616H243.25V457.329Z" fill="#EBEBEB"/>
<path d="M118.864 453.736H60.2241V454.023H118.864V453.736Z" fill="#EBEBEB"/>
<path d="M516.485 448.742H409.56V449.029H516.485V448.742Z" fill="#EBEBEB"/>
<path d="M399.343 448.742H392.076V449.029H399.343V448.742Z" fill="#EBEBEB"/>
<path d="M366.717 453.586H318.237V453.873H366.717V453.586Z" fill="#EBEBEB"/>
<path d="M81.1292 196.423H180.73C180.73 196.423 175.368 183.956 157.46 187.836C157.46 187.836 153.694 173.658 140.033 175.621C140.033 175.621 128.725 163.361 112.228 168.113C95.7317 172.866 97.1552 187.836 97.1552 187.836C97.1552 187.836 84.952 184.644 81.1292 196.423Z" fill="#F3F3F3"/>
<path d="M347.718 120.471H248.129C248.129 120.471 253.478 107.992 271.387 111.873C271.387 111.873 275.153 97.6949 288.825 99.658C288.825 99.658 300.133 87.4088 316.618 92.1615C333.104 96.9142 331.703 111.873 331.703 111.873C331.703 111.873 343.952 108.693 347.718 120.471Z" fill="#F3F3F3"/>
<path d="M421.167 117.222H497.359C497.359 117.222 494.444 106.764 483.423 110.208C483.423 110.208 485.719 96.1335 477.591 94.5033C469.463 92.8732 466.88 103.584 466.88 103.584C465.02 101.476 462.609 99.9294 459.917 99.1181C457.226 98.3068 454.361 98.2631 451.646 98.992C448.976 99.6871 446.544 101.089 444.604 103.051C442.665 105.013 441.29 107.462 440.625 110.139C440.625 110.139 427.056 102.367 421.167 117.222Z" fill="#F3F3F3"/>
<path d="M145.452 255.051H52.7621V438.697H145.452V255.051Z" fill="#E6E6E6"/>
<path d="M128.599 255.051H52.7621V438.697H128.599V255.051Z" fill="#F0F0F0"/>
<path d="M146.542 255.051H50.7646V258.048H146.542V255.051Z" fill="#E0E0E0"/>
<path d="M146.542 249.059H50.7646V252.055H146.542V249.059Z" fill="#E0E0E0"/>
<path d="M144.533 252.055H52.7621V255.051H144.533V252.055Z" fill="#F0F0F0"/>
<path d="M74.2067 265.854H59.9601V280.319H74.2067V265.854Z" fill="#E6E6E6"/>
<path d="M74.1953 265.854H61.2114V280.319H74.1953V265.854Z" fill="#F5F5F5"/>
<path d="M95.7776 265.854H81.5309V280.319H95.7776V265.854Z" fill="#E6E6E6"/>
<path d="M95.7662 265.854H82.7823V280.319H95.7662V265.854Z" fill="#F5F5F5"/>
<path d="M117.349 265.854H103.102V280.319H117.349V265.854Z" fill="#E6E6E6"/>
<path d="M117.337 265.854H104.353V280.319H117.337V265.854Z" fill="#F5F5F5"/>
<path d="M74.2067 287.149H59.9601V301.614H74.2067V287.149Z" fill="#E6E6E6"/>
<path d="M74.1953 287.149H61.2114V301.614H74.1953V287.149Z" fill="#F5F5F5"/>
<path d="M95.7776 287.149H81.5309V301.614H95.7776V287.149Z" fill="#E6E6E6"/>
<path d="M95.7662 287.149H82.7823V301.614H95.7662V287.149Z" fill="#F5F5F5"/>
<path d="M117.349 287.149H103.102V301.614H117.349V287.149Z" fill="#E6E6E6"/>
<path d="M117.337 287.149H104.353V301.614H117.337V287.149Z" fill="#F5F5F5"/>
<path d="M74.2067 326.147H59.9601V340.612H74.2067V326.147Z" fill="#E6E6E6"/>
<path d="M74.1953 326.147H61.2114V340.612H74.1953V326.147Z" fill="#F5F5F5"/>
<path d="M95.7776 326.147H81.5309V340.612H95.7776V326.147Z" fill="#E6E6E6"/>
<path d="M95.7662 326.147H82.7823V340.612H95.7662V326.147Z" fill="#F5F5F5"/>
<path d="M117.349 326.147H103.102V340.612H117.349V326.147Z" fill="#E6E6E6"/>
<path d="M117.337 326.147H104.353V340.612H117.337V326.147Z" fill="#F5F5F5"/>
<path d="M74.2067 347.442H59.9601V361.907H74.2067V347.442Z" fill="#E6E6E6"/>
<path d="M74.1953 347.442H61.2114V361.907H74.1953V347.442Z" fill="#F5F5F5"/>
<path d="M95.7776 347.442H81.5309V361.907H95.7776V347.442Z" fill="#E6E6E6"/>
<path d="M95.7662 347.442H82.7823V361.907H95.7662V347.442Z" fill="#F5F5F5"/>
<path d="M117.349 347.442H103.102V361.907H117.349V347.442Z" fill="#E6E6E6"/>
<path d="M117.337 347.442H104.353V361.907H117.337V347.442Z" fill="#F5F5F5"/>
<path d="M74.2067 390.779H59.9601V405.244H74.2067V390.779Z" fill="#E6E6E6"/>
<path d="M74.1953 390.779H61.2114V405.244H74.1953V390.779Z" fill="#F5F5F5"/>
<path d="M95.7776 390.779H81.5309V405.244H95.7776V390.779Z" fill="#E6E6E6"/>
<path d="M95.7662 390.779H82.7823V405.244H95.7662V390.779Z" fill="#F5F5F5"/>
<path d="M117.349 390.779H103.102V405.244H117.349V390.779Z" fill="#E6E6E6"/>
<path d="M117.337 390.779H104.353V405.244H117.337V390.779Z" fill="#F5F5F5"/>
<path d="M74.2067 412.075H59.9601V426.539H74.2067V412.075Z" fill="#E6E6E6"/>
<path d="M74.1953 412.075H61.2114V426.539H74.1953V412.075Z" fill="#F5F5F5"/>
<path d="M95.7776 412.075H81.5309V426.539H95.7776V412.075Z" fill="#E6E6E6"/>
<path d="M95.7662 412.075H82.7823V426.539H95.7662V412.075Z" fill="#F5F5F5"/>
<path d="M117.349 412.075H103.102V426.539H117.349V412.075Z" fill="#E6E6E6"/>
<path d="M117.337 412.075H104.353V426.539H117.337V412.075Z" fill="#F5F5F5"/>
<path d="M145.452 311.785H52.7621V313.129H145.452V311.785Z" fill="#E0E0E0"/>
<path d="M145.452 378.438H52.7621V379.781H145.452V378.438Z" fill="#E0E0E0"/>
<path d="M509.942 217.156H418.366V439.994H509.942V217.156Z" fill="#E0E0E0"/>
<path d="M483.859 217.156H418.366V439.994H483.859V217.156Z" fill="#F0F0F0"/>
<path d="M449.488 235.466H425.116V247.302H449.488V235.466Z" fill="#E6E6E6"/>
<path d="M449.488 235.466H426.735V247.302H449.488V235.466Z" fill="#F5F5F5"/>
<path d="M477.683 235.466H453.311V247.302H477.683V235.466Z" fill="#E6E6E6"/>
<path d="M477.683 235.466H454.929V247.302H477.683V235.466Z" fill="#F5F5F5"/>
<path d="M449.488 257.738H425.116V269.573H449.488V257.738Z" fill="#E6E6E6"/>
<path d="M449.488 257.738H426.735V269.573H449.488V257.738Z" fill="#F5F5F5"/>
<path d="M477.683 257.738H453.311V269.573H477.683V257.738Z" fill="#E6E6E6"/>
<path d="M477.683 257.738H454.929V269.573H477.683V257.738Z" fill="#F5F5F5"/>
<path d="M449.488 286.197H425.116V298.032H449.488V286.197Z" fill="#E6E6E6"/>
<path d="M449.488 286.197H426.735V298.032H449.488V286.197Z" fill="#F5F5F5"/>
<path d="M477.683 286.197H453.311V298.032H477.683V286.197Z" fill="#E6E6E6"/>
<path d="M477.683 286.197H454.929V298.032H477.683V286.197Z" fill="#F5F5F5"/>
<path d="M449.488 302.555H425.116V314.391H449.488V302.555Z" fill="#E6E6E6"/>
<path d="M449.488 302.555H426.735V314.391H449.488V302.555Z" fill="#F5F5F5"/>
<path d="M477.683 302.555H453.311V314.391H477.683V302.555Z" fill="#E6E6E6"/>
<path d="M477.683 302.555H454.929V314.391H477.683V302.555Z" fill="#F5F5F5"/>
<path d="M449.488 329.43H425.116V341.266H449.488V329.43Z" fill="#E6E6E6"/>
<path d="M449.488 329.43H426.735V341.266H449.488V329.43Z" fill="#F5F5F5"/>
<path d="M477.683 329.43H453.311V341.266H477.683V329.43Z" fill="#E6E6E6"/>
<path d="M477.683 329.43H454.929V341.266H477.683V329.43Z" fill="#F5F5F5"/>
<path d="M449.488 345.778H425.116V357.614H449.488V345.778Z" fill="#E6E6E6"/>
<path d="M449.488 345.778H426.735V357.614H449.488V345.778Z" fill="#F5F5F5"/>
<path d="M477.683 345.778H453.311V357.614H477.683V345.778Z" fill="#E6E6E6"/>
<path d="M477.683 345.778H454.929V357.614H477.683V345.778Z" fill="#F5F5F5"/>
<path d="M449.488 375.029H425.116V386.865H449.488V375.029Z" fill="#E6E6E6"/>
<path d="M449.488 375.029H426.735V386.865H449.488V375.029Z" fill="#F5F5F5"/>
<path d="M477.683 375.029H453.311V386.865H477.683V375.029Z" fill="#E6E6E6"/>
<path d="M477.683 375.029H454.929V386.865H477.683V375.029Z" fill="#F5F5F5"/>
<path d="M449.488 396.623H425.116V408.458H449.488V396.623Z" fill="#E6E6E6"/>
<path d="M449.488 396.623H426.735V408.458H449.488V396.623Z" fill="#F5F5F5"/>
<path d="M477.683 396.623H453.311V408.458H477.683V396.623Z" fill="#E6E6E6"/>
<path d="M477.683 396.623H454.929V408.458H477.683V396.623Z" fill="#F5F5F5"/>
<path opacity="0.05" d="M509.942 276.863H418.366V278.895H509.942V276.863Z" fill="black"/>
<path opacity="0.05" d="M509.942 320.889H418.366V322.921H509.942V320.889Z" fill="black"/>
<path opacity="0.05" d="M509.942 365.305H418.366V367.337H509.942V365.305Z" fill="black"/>
<path d="M509.942 210.566H414.049V217.684H509.942V210.566Z" fill="#E0E0E0"/>
<path opacity="0.05" d="M509.942 210.566H488.026V217.684H509.942V210.566Z" fill="black"/>
<path d="M287.941 167.126H184.415V436.194H287.941V167.126Z" fill="#E6E6E6"/>
<path d="M249.633 167.126H146.094V436.194H249.633V167.126Z" fill="#F0F0F0"/>
<path d="M240.598 185.391H155.129V199.098H240.598V185.391Z" fill="#E6E6E6"/>
<path d="M240.598 185.391H158.447V199.098H240.598V185.391Z" fill="#F5F5F5"/>
<path d="M240.598 208.465H155.129V222.173H240.598V208.465Z" fill="#E6E6E6"/>
<path d="M240.598 208.465H158.447V222.173H240.598V208.465Z" fill="#F5F5F5"/>
<path d="M240.598 232.436H155.129V246.143H240.598V232.436Z" fill="#E6E6E6"/>
<path d="M240.598 232.436H158.447V246.143H240.598V232.436Z" fill="#F5F5F5"/>
<path d="M240.598 256.417H155.129V270.124H240.598V256.417Z" fill="#E6E6E6"/>
<path d="M240.598 256.417H158.447V270.124H240.598V256.417Z" fill="#F5F5F5"/>
<path d="M240.598 280.388H155.129V294.095H240.598V280.388Z" fill="#E6E6E6"/>
<path d="M240.598 280.388H158.447V294.095H240.598V280.388Z" fill="#F5F5F5"/>
<path d="M240.598 304.369H155.129V318.077H240.598V304.369Z" fill="#E6E6E6"/>
<path d="M240.598 304.369H158.447V318.077H240.598V304.369Z" fill="#F5F5F5"/>
<path d="M240.598 330.796H155.129V344.503H240.598V330.796Z" fill="#E6E6E6"/>
<path d="M240.598 330.796H158.447V344.503H240.598V330.796Z" fill="#F5F5F5"/>
<path d="M240.598 357.212H155.129V370.919H240.598V357.212Z" fill="#E6E6E6"/>
<path d="M240.598 357.212H158.447V370.919H240.598V357.212Z" fill="#F5F5F5"/>
<path d="M240.598 383.639H155.129V397.346H240.598V383.639Z" fill="#E6E6E6"/>
<path d="M240.598 383.639H158.447V397.346H240.598V383.639Z" fill="#F5F5F5"/>
<path d="M240.598 410.066H155.129V423.773H240.598V410.066Z" fill="#E6E6E6"/>
<path d="M240.598 410.066H158.447V423.773H240.598V410.066Z" fill="#F5F5F5"/>
<path d="M290.639 164.417H143.167V170.983H290.639V164.417Z" fill="#F5F5F5"/>
<path d="M290.639 152.569H143.167V159.136H290.639V152.569Z" fill="#F5F5F5"/>
<path d="M285.737 157.85H146.094V164.417H285.737V157.85Z" fill="#F0F0F0"/>
<path d="M287.953 185.391H259.104V199.098H287.953V185.391Z" fill="#E0E0E0"/>
<path d="M287.953 207.949H259.104V221.656H287.953V207.949Z" fill="#E0E0E0"/>
<path d="M287.953 230.507H259.104V244.214H287.953V230.507Z" fill="#E0E0E0"/>
<path d="M287.953 256.406H259.104V270.113H287.953V256.406Z" fill="#E0E0E0"/>
<path d="M287.953 280.388H259.104V294.095H287.953V280.388Z" fill="#E0E0E0"/>
<path d="M287.953 304.369H259.104V318.077H287.953V304.369Z" fill="#E0E0E0"/>
<path d="M287.953 330.785H259.104V344.492H287.953V330.785Z" fill="#E0E0E0"/>
<path d="M287.953 357.212H259.104V370.919H287.953V357.212Z" fill="#E0E0E0"/>
<path d="M287.953 383.639H259.104V397.346H287.953V383.639Z" fill="#E0E0E0"/>
<path d="M287.953 410.066H259.104V423.773H287.953V410.066Z" fill="#E0E0E0"/>
<path d="M421.029 261.159H409.641V278.976H421.029V261.159Z" fill="#E0E0E0"/>
<path d="M421.029 290.318H409.641V308.135H421.029V290.318Z" fill="#E0E0E0"/>
<path d="M421.029 318.662H409.641V336.479H421.029V318.662Z" fill="#E0E0E0"/>
<path d="M421.029 348.625H409.641V366.442H421.029V348.625Z" fill="#E0E0E0"/>
<path d="M421.029 377.784H409.641V395.601H421.029V377.784Z" fill="#E0E0E0"/>
<path d="M421.029 243.25H301.189V425.506H421.029V243.25Z" fill="#E6E6E6"/>
<path d="M400.79 243.25H301.201V425.506H400.79V243.25Z" fill="#F0F0F0"/>
<path d="M391.135 261.17H310.155V278.987H391.135V261.17Z" fill="#EBEBEB"/>
<path d="M391.135 290.318H310.155V308.135H391.135V290.318Z" fill="#EBEBEB"/>
<path d="M391.135 319.477H310.155V337.294H391.135V319.477Z" fill="#EBEBEB"/>
<path d="M391.135 348.625H310.155V366.442H391.135V348.625Z" fill="#EBEBEB"/>
<path d="M391.135 377.784H310.155V395.601H391.135V377.784Z" fill="#EBEBEB"/>
<path d="M391.135 261.17H313.14V278.987H391.135V261.17Z" fill="#F5F5F5"/>
<path d="M391.135 290.318H313.14V308.135H391.135V290.318Z" fill="#F5F5F5"/>
<path d="M391.135 319.477H313.14V337.294H391.135V319.477Z" fill="#F5F5F5"/>
<path d="M391.135 348.625H313.14V366.442H391.135V348.625Z" fill="#F5F5F5"/>
<path d="M391.135 377.784H313.14V395.601H391.135V377.784Z" fill="#F5F5F5"/>
<path d="M287 490.839C409.931 490.839 509.586 485.021 509.586 477.844C509.586 470.666 409.931 464.848 287 464.848C164.069 464.848 64.4143 470.666 64.4143 477.844C64.4143 485.021 164.069 490.839 287 490.839Z" fill="#F5F5F5"/>
<path d="M160.41 477.844H155.818" stroke="#FFC554" stroke-linecap="round" stroke-linejoin="round"/>
<path d="M147.139 477.844H29.871" stroke="#FFC554" stroke-linecap="round" stroke-linejoin="round" stroke-dasharray="7.57 7.57"/>
<path d="M25.5315 477.844H20.9395" stroke="#FFC554" stroke-linecap="round" stroke-linejoin="round"/>
<path d="M433.664 203.048L301.203 205.244L302.789 300.871L435.25 298.675L433.664 203.048Z" fill="#FFC554"/>
<path opacity="0.3" d="M381.158 203.907L301.073 205.235L302.658 300.861L382.743 299.533L381.158 203.907Z" fill="white"/>
<path opacity="0.7" d="M409.285 268.31C419.182 268.31 427.205 259.64 427.205 248.944C427.205 238.248 419.182 229.577 409.285 229.577C399.388 229.577 391.365 238.248 391.365 248.944C391.365 259.64 399.388 268.31 409.285 268.31Z" fill="#1F1F1F"/>
<path opacity="0.3" d="M393.226 210.35L370.162 210.812L370.291 217.24L393.354 216.779L393.226 210.35Z" fill="white"/>
<path opacity="0.3" d="M393.911 284.711L370.85 285.093L370.957 291.521L394.017 291.139L393.911 284.711Z" fill="white"/>
<path opacity="0.89" d="M409.285 264.258C416.76 264.258 422.82 257.402 422.82 248.944C422.82 240.486 416.76 233.63 409.285 233.63C401.81 233.63 395.75 240.486 395.75 248.944C395.75 257.402 401.81 264.258 409.285 264.258Z" stroke="white" stroke-miterlimit="10"/>
<path opacity="0.89" d="M409.847 235.96V238.531" stroke="white" stroke-linecap="round" stroke-linejoin="round"/>
<path opacity="0.89" d="M410.433 259.517V262.089" stroke="white" stroke-linecap="round" stroke-linejoin="round"/>
<path opacity="0.89" d="M397.874 248.439H400.457" stroke="white" stroke-linecap="round" stroke-linejoin="round"/>
<path opacity="0.89" d="M418.607 248.45H421.19" stroke="white" stroke-linecap="round" stroke-linejoin="round"/>
<path opacity="0.89" d="M409.836 248.438L409.847 240.517" stroke="white" stroke-width="0.5" stroke-linecap="round" stroke-linejoin="round"/>
<path d="M410.341 248.955L415.943 254.558" stroke="white" stroke-width="0.5" stroke-linecap="round" stroke-linejoin="round"/>
<path opacity="0.89" d="M411.087 248.45C411.087 248.697 411.014 248.939 410.876 249.145C410.739 249.351 410.543 249.511 410.315 249.606C410.086 249.701 409.835 249.725 409.592 249.677C409.349 249.629 409.126 249.51 408.951 249.335C408.776 249.16 408.657 248.937 408.609 248.694C408.56 248.451 408.585 248.2 408.68 247.971C408.775 247.742 408.935 247.547 409.141 247.409C409.347 247.272 409.588 247.199 409.836 247.199C410.001 247.197 410.164 247.228 410.317 247.291C410.469 247.353 410.608 247.445 410.724 247.562C410.841 247.678 410.933 247.817 410.995 247.969C411.057 248.122 411.089 248.285 411.087 248.45Z" fill="white"/>
<path d="M260.458 416.896C262.456 418.423 302.555 414.107 292.189 342.965C292.189 342.965 311.211 347.798 313.255 347.477C313.255 347.477 341.163 390.263 320.843 411.455C300.523 432.647 270.239 433.944 270.239 433.944L260.458 416.896Z" fill="#FFC554"/>
<path opacity="0.3" d="M260.458 416.896C262.456 418.423 302.555 414.107 292.189 342.965C292.189 342.965 311.211 347.798 313.255 347.477C313.255 347.477 341.163 390.263 320.843 411.455C300.523 432.647 270.239 433.944 270.239 433.944L260.458 416.896Z" fill="black"/>
<path d="M304.897 353.975C305.001 353.975 293.693 354.193 289.904 349.486C286.116 344.779 283.556 336.364 290.444 330.624C297.332 324.884 337.776 300.088 356.821 298.136C375.867 296.184 396.255 308.468 396.255 308.468L371.321 326.905L317.629 339.9L304.897 353.975Z" fill="#263238"/>
<path d="M268.333 405.692L269.378 415.978L281.731 414.933L279.871 404.36L268.333 405.692Z" fill="#FFBE9D"/>
<path d="M265.934 415.232L283.854 414.979L285.129 424.025C285.129 424.025 268.345 424.255 261.446 423.336C254.546 422.418 255.625 418.825 255.625 418.825C255.625 418.825 263.707 419.02 265.934 415.232Z" fill="#263238"/>
<path d="M422.324 441.268C424.999 414.972 409.124 391.818 386.864 389.553C364.604 387.288 344.39 406.769 341.714 433.066C339.038 459.363 354.914 482.517 377.174 484.782C399.434 487.047 419.648 467.565 422.324 441.268Z" fill="#263238"/>
<path d="M353.859 290.777C353.859 290.777 355.719 333.448 330.899 334.665C306.08 335.882 279.412 333.161 279.412 333.161L287.23 409.836L263.96 411.271C263.96 411.271 247.256 346.225 244.627 329.878C241.998 313.53 244.283 301.97 261.537 294.714C278.792 287.459 353.859 290.777 353.859 290.777Z" fill="#FFC554"/>
<path d="M214.963 426.16L245.879 336.364L287.207 290.742C287.207 290.742 251.137 290.88 233.802 300.845C216.467 310.809 215.824 322.783 212.644 337.03C209.464 351.276 196.71 418.71 196.71 418.71L214.963 426.16Z" fill="#FFC554"/>
<path opacity="0.78" d="M353.86 290.777C353.86 290.777 315.447 289.067 287.276 290.777C287.276 290.777 251.205 290.915 233.871 300.879C216.536 310.844 215.824 322.783 212.644 337.03C209.464 351.277 196.71 418.71 196.71 418.71L214.963 426.161L245.879 336.364C251.079 361.253 263.96 411.225 263.96 411.225L287.23 409.836L279.4 333.207C279.4 333.207 306.057 335.928 330.888 334.711C355.719 333.494 353.86 290.777 353.86 290.777Z" fill="#1F1F1F"/>
<path d="M290.444 221.564L276.174 223.297C276.174 223.297 273.695 249.529 271.387 254.626C271.387 254.626 227.499 260.653 209.521 260.137L200.395 266.336L200.073 277.115L209.016 277.379L211.898 270.549C211.898 270.549 217.936 270.285 219.337 266.887C219.337 266.887 265.969 278.149 283.143 265.291C283.166 265.303 293.521 250.092 290.444 221.564Z" fill="#FFBE9D"/>
<path d="M331.336 151.318C331.336 151.318 335.801 157.058 334.102 162.029C333.634 163.446 332.807 164.719 331.703 165.725C330.599 166.73 329.255 167.434 327.8 167.769C327.8 167.769 326.962 175.724 322.267 175.954C317.571 176.184 319.144 158.424 319.144 158.424L331.336 151.318Z" fill="#263238"/>
<path d="M295.185 290.972L292.051 239.691L272.604 226.764C272.604 226.764 278.964 204.344 291.133 200.544C303.302 196.744 329.843 188.031 345.938 192.359C362.033 196.687 360.185 215.675 357.418 229.761L354.319 230.495C354.319 230.495 353.837 286.001 353.814 290.777L295.185 290.972Z" fill="#263238"/>
<path d="M330.176 195.527C323.805 201.692 310.81 205.366 307.216 202.3C303.623 199.235 308.158 196.423 311.533 192.956C313.358 191.05 313.301 187.48 312.876 184.633C312.652 183.198 312.322 181.782 311.889 180.397C299.961 179.742 295.013 174.163 294.519 164.325C294.026 154.486 298.48 143.064 298.48 143.064L306.906 135.877C306.906 135.877 318.386 137.599 327.57 143.913C333.035 147.633 331.416 154.957 329.155 160.364C328.196 162.666 327.044 164.882 325.711 166.988C324.425 180.454 330.176 195.527 330.176 195.527Z" fill="#FFBE9D"/>
<path d="M301.155 167.034C301.155 167.034 305.747 167.252 307.756 164.405" stroke="#263238" stroke-linecap="round" stroke-linejoin="round"/>
<path d="M308.468 155.416C308.468 156.289 307.94 156.978 307.32 156.966C306.7 156.955 306.252 156.232 306.275 155.359C306.298 154.487 306.803 153.798 307.423 153.809C308.043 153.821 308.502 154.544 308.468 155.416Z" fill="#263238"/>
<path d="M297.998 155.692C297.998 156.564 297.47 157.253 296.85 157.241C296.23 157.23 295.782 156.507 295.805 155.634C295.828 154.762 296.333 154.073 296.953 154.084C297.573 154.096 298.032 154.831 297.998 155.692Z" fill="#263238"/>
<path d="M301.637 162.821L301.166 155.784L297.803 162.465C298.328 162.911 298.978 163.185 299.664 163.248C300.35 163.312 301.039 163.163 301.637 162.821Z" fill="#ED847E"/>
<path d="M307.917 149.906C308.797 149.664 309.735 149.742 310.563 150.127C311.392 150.512 312.056 151.178 312.44 152.007" stroke="#263238" stroke-linecap="round" stroke-linejoin="round"/>
<path d="M294.761 151.203C294.761 151.203 296.873 148.907 299.353 149.493" stroke="#263238" stroke-linecap="round" stroke-linejoin="round"/>
<path d="M329.235 160.364C316.102 160.835 314.472 145.945 314.472 145.945C307.974 149.389 298.526 143.075 298.526 143.075L306.952 135.866C306.952 135.866 318.432 137.611 327.616 143.902C333.115 147.633 331.496 154.98 329.235 160.364Z" fill="#263238"/>
<path d="M294.301 147.438C294.301 147.438 287.505 142.915 290.501 139.654C293.498 136.394 311.854 142.593 325.573 150.193C325.573 150.193 294.152 129.173 285.611 135.82C278.551 141.319 294.209 148.953 293.739 148.942L294.301 147.438Z" fill="#FFC554"/>
<path d="M332.633 145.899C332.614 148.28 332.163 150.637 331.301 152.856L300.443 137.932C301.722 136.456 303.253 135.22 304.966 134.281C306.792 133.237 308.778 132.5 310.844 132.1C313.035 131.682 315.277 131.604 317.491 131.871C328.776 133.168 332.69 141.847 332.633 145.899Z" fill="#FFC554"/>
<path d="M195.975 297.871C195.975 297.871 161.122 346.087 189.822 420.306" stroke="#263238" stroke-linecap="round" stroke-linejoin="round"/>
<path d="M241.975 322.921C241.975 322.921 241.975 323.013 241.975 323.196C241.975 323.38 241.975 323.483 241.975 323.69V323.805C241.561 328.449 240.793 333.054 239.679 337.581C238.095 344.274 235.994 350.645 234.261 355.765C226.914 377.52 227.763 400.962 227.763 400.962C225.329 397.931 220.875 395.773 215.307 394.258C195.034 388.69 160.617 391.675 160.617 391.675C153.866 367.991 156.277 330.923 162.993 310.167C169.709 289.411 188.329 294.095 188.329 294.095C188.329 294.095 207.983 294.669 210.451 294.405C214.969 293.857 219.541 293.949 224.032 294.68C239.209 297.458 242.859 309.455 241.975 322.921Z" fill="#FFC554"/>
<path d="M393.293 413.28C358.853 444.368 292.373 447.628 242.905 444.184L215.193 394.327L203.965 374.133L240.035 325.515L241.941 322.955C241.941 322.955 241.941 323.047 241.941 323.231C241.941 323.415 241.941 323.518 241.941 323.725V323.839C241.447 332.507 238.256 402.064 263.753 419.123L263.96 419.273C267.41 421.502 271.413 422.727 275.52 422.808C322.301 424.163 320.992 363.112 309.099 350.037L390.274 333.724C390.274 333.724 406.3 374.076 393.293 413.28Z" fill="#FFC554"/>
<path d="M303.003 336.8C303.003 336.8 295.392 343.114 299.318 351.586C303.244 360.059 341.094 343.608 355.995 340.612C370.896 337.615 388.139 334.688 395.555 333.161C402.971 331.634 402.328 310.362 396.267 308.479C390.205 306.596 330.831 317.089 320.981 322.852C314.477 326.802 308.445 331.482 303.003 336.8Z" fill="#263238"/>
<path d="M322.06 165.622C321.336 164.842 320.897 163.84 320.816 162.779C320.734 161.717 321.015 160.66 321.612 159.779C323.449 157.024 327.157 152.65 330.716 155.922C335.698 160.513 327.191 168.859 323.667 166.839C323.077 166.511 322.536 166.101 322.06 165.622Z" fill="#FFBE9D"/>
<path opacity="0.2" d="M294.301 147.438C294.301 147.438 287.505 142.915 290.501 139.654C291.833 138.208 295.817 138.506 301.201 140.045C304.663 140.977 308.054 142.154 311.349 143.569C316.079 145.624 321.107 148.253 325.573 150.193C325.573 150.193 294.152 129.173 285.611 135.82C278.551 141.319 293.234 148.448 293.75 148.93L294.003 148L294.301 147.438Z" fill="black"/>
<path d="M297.527 145.475C297.527 145.475 290.639 146.623 295.392 154.039L297.527 145.475Z" fill="#263238"/>
<path d="M304.128 140.951C304.128 140.951 293.739 137.301 290.846 139.367C287.953 141.434 290.984 145.371 294.29 147.403L296.942 147.747L298.503 143.041L302.544 142.547L304.128 140.951Z" fill="#263238"/>
<path opacity="0.3" d="M318.283 135.337L315.792 139.023L304.966 134.316C306.793 133.271 308.778 132.534 310.844 132.135L318.283 135.337Z" fill="white"/>
<path opacity="0.1" d="M315.872 179.386C315.156 181.292 314.128 183.065 312.83 184.633C312.606 183.198 312.276 181.782 311.843 180.397C313.235 180.299 314.599 179.957 315.872 179.386Z" fill="black"/>
<path opacity="0.2" d="M261.744 283.166C259.735 285.267 233.756 279.883 229.221 282.293C227.304 283.304 226.466 286.885 224.537 290.811C219.119 299.421 211.496 300.776 211.025 300.845C220.118 293.957 222.655 277.38 218.143 266.899C213.631 256.417 197.479 259.138 196.561 259.448C199.315 258.237 202.278 257.571 205.285 257.485C214.022 257.026 224.675 259.483 227.66 265.016C233.721 276.301 259.712 273.764 262.1 276.726C264.488 279.687 263.753 281.065 261.744 283.166Z" fill="black"/>
<path d="M212.954 280.342C212.495 288.297 209.051 294.807 204.826 296.414C204.095 296.695 203.312 296.817 202.53 296.77C197.318 296.471 193.53 288.653 194.058 279.32C194.586 269.987 199.247 262.663 204.459 262.961C206.583 263.076 208.454 264.442 209.912 266.635C212.059 269.78 213.264 274.808 212.954 280.342Z" fill="#F5F5F5"/>
<path d="M212.954 280.341C212.495 288.297 209.051 294.806 204.826 296.413C200.005 296.138 196.503 288.917 196.997 280.341C197.49 271.766 201.784 264.958 206.606 265.234C207.848 265.327 209.024 265.832 209.946 266.669C212.059 269.78 213.264 274.808 212.954 280.341Z" fill="#FFD583"/>
<path d="M399.01 393.11C390.136 386.876 355.8 380.757 355.8 380.757C334.94 380.757 316.63 399.527 314.104 424.45C312.038 444.724 320.992 463.126 335.423 471.518C335.423 471.518 336.628 472.023 338.649 472.815C346.294 475.835 365.695 483.147 377.164 484.755" fill="#263238"/>
<path opacity="0.3" d="M422.324 441.268C424.999 414.972 409.124 391.818 386.864 389.553C364.604 387.288 344.39 406.769 341.714 433.066C339.038 459.363 354.914 482.517 377.174 484.782C399.434 487.047 419.648 467.565 422.324 441.268Z" fill="black"/>
<path d="M243.856 439.738C246.532 413.441 230.656 390.288 208.397 388.023C186.137 385.758 165.923 405.239 163.247 431.536C160.571 457.832 176.447 480.986 198.707 483.251C220.967 485.516 241.181 466.035 243.856 439.738Z" fill="#263238"/>
<path d="M228.314 396.795L207.788 482.975C204.793 483.46 201.748 483.549 198.73 483.239H198.501C194.563 482.229 196.319 483.319 192.37 482.011C182.325 478.693 167.734 472.827 167.734 472.827C152.271 465.307 143.534 447.02 145.658 426.126C148.23 400.813 166.391 381.905 187.767 383.455C187.767 383.455 197.915 385.326 208.362 388.047C212.954 389.195 217.546 390.561 221.323 391.985C223.824 393.325 226.168 394.938 228.314 396.795Z" fill="#263238"/>
<path opacity="0.3" d="M243.858 439.684C241.562 462.357 226.213 479.956 207.765 482.929C204.771 483.415 201.725 483.503 198.707 483.193H198.478C194.274 482.74 190.189 481.522 186.424 479.6C170.914 471.736 161.099 452.634 163.246 431.51C165.92 405.233 186.091 385.774 208.339 388.001H208.396C212.914 388.457 217.298 389.795 221.3 391.939C223.801 393.283 226.146 394.9 228.291 396.76C239.278 406.312 245.672 422.338 243.858 439.684Z" fill="black"/>
<path d="M238.267 409.491C237.595 408.418 236.826 407.407 235.971 406.472C230.84 399.469 219.107 396.852 211.427 397.472C205.54 398.046 199.887 400.074 194.976 403.372C189.374 407 185.368 412.556 179.811 416.368C169.273 423.646 153.281 423.44 142.696 415.943C142.1 415.519 141.532 415.055 140.997 414.554C139.919 413.431 139.199 412.012 138.931 410.479C138.526 408.564 138.673 406.573 139.356 404.739C141.652 398.287 149.309 392.616 154.142 389.16C163.941 382.247 175.466 378.189 187.434 377.439C221.564 375.086 236.121 404.233 238.267 409.491Z" fill="#FFC554"/>
<path opacity="0.3" d="M235.903 410.41C228.567 399.825 219.153 396.852 211.473 397.472C205.586 398.047 199.933 400.074 195.022 403.373C189.42 407 185.414 412.557 179.857 416.368C169.319 423.646 153.327 423.44 142.742 415.943C142.145 415.519 141.578 415.055 141.043 414.554C139.965 413.431 139.245 412.013 138.977 410.479C138.572 408.564 138.719 406.573 139.402 404.739C142.949 408.837 153.281 418.71 167.275 413.923C184.725 407.896 188.984 389.987 207.639 390.148C222.459 390.32 231.586 401.8 235.903 410.41Z" fill="black"/>
<g opacity="0.3">
<path opacity="0.3" d="M159.136 386.004C164.114 382.466 169.714 379.899 175.644 378.438C181.579 376.928 187.726 376.423 193.828 376.946C199.921 377.532 205.887 379.05 211.519 381.446L213.608 382.364L215.652 383.386C217.029 384.029 218.327 384.833 219.658 385.567C220.99 386.302 222.218 387.209 223.493 388.024C224.767 388.839 225.961 389.792 227.178 390.699C222.171 387.344 216.827 384.524 211.232 382.284C205.648 380.044 199.765 378.64 193.771 378.117C187.79 377.545 181.755 377.932 175.897 379.265C172.955 379.917 170.072 380.808 167.275 381.928C164.437 383.021 161.711 384.386 159.136 386.004Z" fill="black"/>
</g>
<g opacity="0.3">
<path opacity="0.3" d="M196.308 377.795C194.877 373.008 194.017 368.067 193.748 363.078C193.369 358.107 193.289 353.113 193.392 348.154C193.495 343.194 193.84 338.189 194.299 333.23L195.137 325.814C195.504 323.346 195.826 320.877 196.285 318.421L195.24 333.345L194.827 340.784C194.758 343.263 194.609 345.743 194.597 348.223C194.402 353.182 194.494 358.141 194.678 363.147C194.758 365.626 194.953 368.095 195.206 370.563C195.408 372.996 195.776 375.412 196.308 377.795Z" fill="black"/>
</g>
<path opacity="0.3" d="M263.696 419.02C239.725 403.602 238.773 363.824 239.588 337.581C239.737 333.069 239.921 328.971 240.058 325.447C240.31 321.919 240.31 318.378 240.058 314.851C237.636 296.827 223.86 294.657 223.86 294.657H223.917C239.174 297.458 242.825 309.455 241.941 322.921C241.941 322.921 241.941 323.013 241.941 323.196C241.941 323.38 241.941 323.483 241.941 323.69V323.805C241.424 332.472 238.233 402.03 263.696 419.02Z" fill="black"/>
<path d="M241.401 273.143C239.822 276.058 239.192 279.393 239.599 282.683L261.606 285.163C262.731 283.861 263.563 282.332 264.044 280.68C264.526 279.028 264.646 277.291 264.396 275.589C264.396 275.589 242.595 273.396 241.401 273.143Z" fill="#263238"/>
<path d="M174.576 272.328C174.576 272.328 172.384 267.667 175.013 264.717C169.135 264.189 165.496 263.569 161.707 263.018C161.145 264.729 160.869 266.37 162.855 268.976C164.841 271.582 174.576 272.328 174.576 272.328Z" fill="#263238"/>
<path d="M174.666 272.172C173.548 267.342 174.375 265.428 174.973 265.029L188.463 266.432C189.965 264.78 193.476 261.233 196.117 259.547L192.29 267.867C187.698 272.459 189.101 285.406 190.377 291.305C194.586 299.724 205.843 300.872 210.945 300.393C205.97 301.159 200.262 300.393 198.03 299.915C186.167 298.002 185.753 281.543 187.028 273.553L174.666 272.172Z" fill="#C4C4C4"/>
<path d="M162.35 301.499C158.539 307.71 155.279 317.651 154.992 333.528" stroke="#FFC554" stroke-linecap="round" stroke-linejoin="round"/>
<path d="M174.898 291.259C172.125 291.902 169.576 293.278 167.516 295.242" stroke="#FFC554" stroke-linecap="round" stroke-linejoin="round"/>
<path d="M346.099 231.414L331.611 233.182C331.611 233.182 329.086 259.804 326.744 264.981C326.744 264.981 282.19 271.112 263.925 270.572L254.661 276.863L254.339 287.815L263.42 288.079L266.347 281.191C266.347 281.191 272.478 280.927 273.89 277.472C273.89 277.472 321.233 288.952 338.672 275.865C338.66 275.819 349.187 260.378 346.099 231.414Z" fill="#FFBE9D"/>
<path opacity="0.2" d="M228.131 436.24C227.717 450.682 218.258 462.116 206.996 461.794C205.482 461.749 203.983 461.49 202.542 461.025C193.518 458.155 187.021 447.513 187.377 435.057C187.732 423.003 194.379 413.039 203.116 410.272C204.861 409.711 206.69 409.451 208.523 409.503C219.785 409.836 228.555 421.844 228.131 436.24Z" fill="#FAFAFA"/>
<path d="M217.764 436.24C217.408 448.569 210.876 458.706 202.542 461.06C193.518 458.19 187.021 447.548 187.377 435.092C187.732 423.038 194.379 413.073 203.116 410.306C211.795 412.66 218.12 423.474 217.764 436.24Z" fill="#263238"/>
<path opacity="0.2" d="M405.014 437.388C404.59 451.83 395.13 463.275 383.88 462.943C382.366 462.903 380.865 462.644 379.426 462.173C370.391 459.303 363.893 448.673 364.26 436.206C364.605 424.163 371.252 414.187 379.988 411.42C381.734 410.859 383.562 410.599 385.395 410.651C396.657 410.984 405.428 422.969 405.014 437.388Z" fill="#FAFAFA"/>
<path d="M394.648 437.388C394.281 449.706 387.76 459.843 379.426 462.196C370.391 459.326 363.893 448.695 364.26 436.228C364.605 424.186 371.252 414.21 379.988 411.443C388.678 413.796 395.015 424.61 394.648 437.388Z" fill="#263238"/>
<path d="M422.763 399.343C422.958 413.544 401.341 422.946 365.167 428.87C355.417 430.584 345.452 430.701 335.664 429.214C319.592 426.562 311.739 419.766 311.739 419.766C311.739 419.766 315.826 370.689 356.27 364.467C383.822 360.242 404.555 371.355 415.071 383.329C420.019 388.954 422.705 394.797 422.763 399.343Z" fill="#FFC554"/>
<path opacity="0.3" d="M422.763 399.343C422.958 413.544 401.341 422.946 365.167 428.87C355.417 430.584 345.452 430.7 335.664 429.214C337.397 415.886 345.181 380.929 379.012 377.301C394.361 375.648 406.208 378.748 415.071 383.328C420.019 388.954 422.705 394.797 422.763 399.343Z" fill="black"/>
<g opacity="0.3">
<path opacity="0.3" d="M314.081 419.984C314.826 413.304 316.419 406.745 318.823 400.468C321.186 394.126 324.449 388.157 328.512 382.743C330.564 380.052 332.871 377.565 335.4 375.315C337.905 373.03 340.668 371.042 343.631 369.392C349.527 366.067 356.061 364.028 362.802 363.411C359.499 363.964 356.25 364.801 353.09 365.913C351.495 366.395 349.991 367.142 348.498 367.773C347.001 368.49 345.541 369.283 344.125 370.149C342.678 370.976 341.346 371.975 339.98 372.905C338.614 373.834 337.351 374.937 336.146 376.096C333.694 378.324 331.461 380.78 329.476 383.432C325.443 388.741 322.156 394.577 319.707 400.778C318.435 403.867 317.338 407.025 316.423 410.238C315.449 413.437 314.667 416.691 314.081 419.984Z" fill="black"/>
</g>
<path d="M259.804 403.774L262.192 411.879L287.23 409.79L287.562 398.459L259.804 403.774Z" fill="#FFC554"/>
<path d="M424.282 462.07C426.036 453.46 433.083 436.049 447.242 435.283" stroke="#FFC554" stroke-width="0.5" stroke-dasharray="8 8"/>
<path d="M429.543 460.635C436.081 453.939 451.929 440.833 463.027 441.98" stroke="#FFC554" stroke-width="0.5" stroke-dasharray="8 8"/>
<path d="M341.559 358.564C341.632 358.556 341.715 358.546 341.808 358.534C341.906 358.514 342.02 358.491 342.151 358.464C342.915 358.308 343.441 358.001 343.728 357.541C344.022 357.079 344.1 356.509 343.961 355.83C343.816 355.118 343.53 354.615 343.103 354.321C342.675 354.027 342.08 353.957 341.315 354.113C341.211 354.134 341.104 354.16 340.994 354.189C340.883 354.211 340.78 354.239 340.684 354.272L341.559 358.564ZM345.539 355.508C345.659 356.096 345.672 356.628 345.578 357.103C345.484 357.578 345.297 357.993 345.015 358.35C344.741 358.705 344.376 359.004 343.922 359.246C343.468 359.488 342.941 359.671 342.34 359.793C342.065 359.849 341.742 359.901 341.371 359.949C341.002 360.004 340.633 360.032 340.266 360.032L338.918 353.418C339.258 353.28 339.615 353.163 339.99 353.067C340.37 352.962 340.697 352.882 340.972 352.826C341.553 352.707 342.092 352.666 342.589 352.701C343.093 352.734 343.543 352.857 343.94 353.068C344.337 353.28 344.671 353.586 344.943 353.987C345.215 354.387 345.414 354.894 345.539 355.508ZM346.648 356.18C346.555 355.723 346.543 355.311 346.611 354.943C346.684 354.568 346.811 354.242 346.993 353.967C347.176 353.692 347.402 353.465 347.672 353.288C347.948 353.109 348.243 352.988 348.557 352.924C349.288 352.775 349.912 352.883 350.429 353.247C350.944 353.605 351.29 354.218 351.467 355.087C351.484 355.172 351.5 355.267 351.515 355.373C351.528 355.472 351.54 355.562 351.549 355.641L348.237 356.316C348.331 356.61 348.52 356.82 348.804 356.945C349.089 357.071 349.44 357.092 349.858 357.006C350.126 356.952 350.382 356.876 350.628 356.778C350.878 356.673 351.078 356.567 351.227 356.462L351.664 357.608C351.594 357.663 351.497 357.724 351.375 357.789C351.252 357.855 351.112 357.918 350.954 357.977C350.803 358.042 350.639 358.103 350.46 358.159C350.281 358.216 350.1 358.263 349.917 358.301C349.453 358.395 349.034 358.409 348.66 358.342C348.293 358.274 347.971 358.146 347.694 357.957C347.423 357.761 347.198 357.511 347.021 357.207C346.85 356.901 346.725 356.559 346.648 356.18ZM349.964 354.923C349.932 354.801 349.885 354.684 349.822 354.575C349.765 354.464 349.688 354.371 349.591 354.295C349.501 354.218 349.391 354.162 349.261 354.128C349.138 354.091 348.992 354.091 348.822 354.125C348.659 354.159 348.524 354.217 348.418 354.299C348.312 354.375 348.228 354.467 348.168 354.575C348.109 354.682 348.069 354.803 348.048 354.936C348.033 355.062 348.028 355.188 348.034 355.316L349.964 354.923ZM355.21 357.182C354.784 357.262 354.429 357.286 354.144 357.256C353.865 357.224 353.632 357.149 353.445 357.031C353.262 356.905 353.12 356.74 353.017 356.536C352.92 356.325 352.843 356.082 352.787 355.808L351.632 350.134L353.044 349.602L354.187 355.216C354.214 355.347 354.248 355.463 354.289 355.563C354.33 355.664 354.383 355.744 354.45 355.806C354.524 355.866 354.617 355.908 354.731 355.932C354.845 355.957 354.992 355.957 355.171 355.935L355.21 357.182ZM357.693 356.574L356.233 356.871L355.183 351.717L356.643 351.42L357.693 356.574ZM356.477 349.902C356.532 350.17 356.487 350.401 356.342 350.593C356.203 350.778 356.016 350.894 355.781 350.942C355.545 350.99 355.324 350.957 355.117 350.843C354.916 350.721 354.787 350.526 354.733 350.258C354.678 349.99 354.721 349.764 354.86 349.579C355.004 349.386 355.194 349.266 355.429 349.218C355.664 349.17 355.883 349.207 356.085 349.329C356.292 349.444 356.422 349.635 356.477 349.902ZM360.314 356.04C359.847 355.455 359.352 354.76 358.827 353.955C358.309 353.149 357.792 352.261 357.275 351.291L358.823 350.976C358.94 351.217 359.072 351.48 359.218 351.763C359.369 352.038 359.522 352.32 359.676 352.608C359.835 352.889 359.99 353.164 360.14 353.432C360.296 353.7 360.444 353.942 360.583 354.159C360.62 353.906 360.659 353.626 360.698 353.319C360.738 353.011 360.772 352.698 360.803 352.379C360.838 352.052 360.868 351.733 360.893 351.422C360.924 351.102 360.945 350.809 360.959 350.541L362.468 350.233C362.371 351.328 362.239 352.348 362.071 353.294C361.909 354.239 361.729 355.072 361.529 355.793L360.314 356.04ZM363.404 352.768C363.311 352.31 363.298 351.898 363.366 351.53C363.439 351.155 363.567 350.829 363.749 350.554C363.931 350.279 364.157 350.053 364.427 349.875C364.704 349.696 364.999 349.575 365.312 349.511C366.044 349.362 366.668 349.47 367.184 349.834C367.7 350.192 368.046 350.805 368.223 351.674C368.24 351.759 368.256 351.854 368.271 351.96C368.284 352.059 368.295 352.149 368.305 352.229L364.993 352.903C365.087 353.197 365.276 353.407 365.56 353.533C365.844 353.659 366.195 353.679 366.613 353.594C366.881 353.539 367.138 353.463 367.383 353.365C367.634 353.26 367.834 353.155 367.982 353.05L368.42 354.195C368.349 354.25 368.253 354.311 368.13 354.377C368.007 354.443 367.867 354.505 367.709 354.565C367.559 354.629 367.394 354.69 367.216 354.747C367.037 354.804 366.856 354.851 366.673 354.888C366.209 354.982 365.79 354.996 365.416 354.93C365.048 354.862 364.726 354.733 364.45 354.545C364.178 354.348 363.954 354.098 363.776 353.794C363.605 353.489 363.481 353.147 363.404 352.768ZM366.72 351.511C366.688 351.388 366.64 351.272 366.577 351.162C366.521 351.051 366.444 350.958 366.347 350.882C366.256 350.806 366.146 350.75 366.017 350.715C365.894 350.679 365.747 350.678 365.577 350.712C365.414 350.746 365.28 350.804 365.174 350.886C365.067 350.963 364.984 351.055 364.924 351.162C364.864 351.269 364.824 351.39 364.804 351.523C364.788 351.649 364.784 351.776 364.789 351.904L366.72 351.511ZM372.208 349.597C372.071 349.591 371.911 349.589 371.727 349.592C371.543 349.589 371.35 349.608 371.147 349.649C371.056 349.668 370.947 349.701 370.82 349.747C370.699 349.785 370.607 349.821 370.546 349.854L371.348 353.793L369.888 354.09L368.894 349.21C369.137 349.066 369.427 348.918 369.763 348.768C370.105 348.61 370.495 348.486 370.933 348.397C371.011 348.381 371.107 348.368 371.221 348.359C371.333 348.343 371.447 348.333 371.562 348.33C371.676 348.321 371.791 348.318 371.907 348.321C372.022 348.318 372.122 348.325 372.207 348.342L372.208 349.597ZM378.22 349.699C378.303 350.104 378.32 350.488 378.272 350.852C378.222 351.209 378.111 351.531 377.938 351.818C377.763 352.098 377.533 352.336 377.246 352.53C376.966 352.723 376.633 352.859 376.247 352.938C375.868 353.015 375.509 353.02 375.169 352.953C374.835 352.885 374.533 352.756 374.263 352.566C373.992 352.37 373.76 352.118 373.568 351.81C373.375 351.495 373.237 351.136 373.154 350.731C373.072 350.326 373.059 349.944 373.115 349.585C373.178 349.226 373.296 348.906 373.471 348.625C373.651 348.343 373.882 348.106 374.162 347.913C374.449 347.718 374.776 347.584 375.141 347.509C375.514 347.433 375.867 347.43 376.2 347.498C376.541 347.564 376.846 347.693 377.116 347.883C377.386 348.073 377.617 348.322 377.809 348.629C378.001 348.937 378.138 349.294 378.22 349.699ZM376.731 350.002C376.639 349.551 376.476 349.217 376.241 349C376.011 348.774 375.73 348.696 375.397 348.763C375.064 348.831 374.832 349.015 374.703 349.313C374.572 349.605 374.552 349.976 374.644 350.427C374.736 350.878 374.9 351.219 375.138 351.449C375.374 351.673 375.659 351.751 375.992 351.684C376.325 351.616 376.553 351.433 376.676 351.136C376.805 350.831 376.823 350.453 376.731 350.002ZM384.172 348.486C384.255 348.891 384.272 349.276 384.224 349.639C384.174 349.997 384.063 350.319 383.89 350.606C383.715 350.886 383.485 351.123 383.198 351.318C382.918 351.511 382.585 351.647 382.199 351.725C381.82 351.803 381.461 351.808 381.121 351.741C380.787 351.673 380.485 351.544 380.215 351.354C379.944 351.157 379.712 350.905 379.52 350.597C379.327 350.283 379.189 349.923 379.106 349.518C379.024 349.113 379.011 348.732 379.067 348.373C379.13 348.013 379.248 347.693 379.423 347.413C379.603 347.131 379.834 346.894 380.114 346.7C380.401 346.506 380.728 346.371 381.094 346.297C381.466 346.221 381.819 346.217 382.152 346.285C382.493 346.352 382.798 346.48 383.068 346.67C383.338 346.86 383.569 347.109 383.761 347.417C383.953 347.725 384.09 348.081 384.172 348.486ZM382.683 348.79C382.591 348.339 382.428 348.005 382.193 347.787C381.964 347.562 381.682 347.483 381.349 347.551C381.016 347.619 380.784 347.802 380.655 348.101C380.524 348.393 380.504 348.764 380.596 349.215C380.688 349.666 380.852 350.006 381.09 350.237C381.326 350.461 381.611 350.539 381.944 350.471C382.277 350.403 382.505 350.221 382.628 349.924C382.757 349.618 382.775 349.241 382.683 348.79Z" fill="#1F1F1F"/>
<path d="M408.872 348.498L463.964 346.26" stroke="#FFC554" stroke-linecap="round" stroke-linejoin="round"/>
<path d="M482.171 336.226L490.357 335.893" stroke="#FFC554" stroke-linecap="round" stroke-linejoin="round"/>
<path d="M435.276 338.132L475.892 336.479" stroke="#FFC554" stroke-linecap="round" stroke-linejoin="round"/>
<path d="M463.7 366.648L497.738 365.271" stroke="#FFC554" stroke-linecap="round" stroke-linejoin="round"/>
<path d="M442.657 367.509L457.49 366.901" stroke="#FFC554" stroke-linecap="round" stroke-linejoin="round"/>
</svg>
