<svg width="20" height="20" viewBox="0 0 20 20" fill="none" xmlns="http://www.w3.org/2000/svg">
<path d="M14.1667 1.66675H5.83332C3.53214 1.66675 1.66666 3.53223 1.66666 5.83342V14.1667C1.66666 16.4679 3.53214 18.3334 5.83332 18.3334H14.1667C16.4678 18.3334 18.3333 16.4679 18.3333 14.1667V5.83342C18.3333 3.53223 16.4678 1.66675 14.1667 1.66675Z" stroke="#FFC554" stroke-width="2" stroke-linecap="round" stroke-linejoin="round"/>
<path d="M13.3333 9.47501C13.4362 10.1685 13.3177 10.8769 12.9948 11.4992C12.6719 12.1215 12.161 12.6262 11.5347 12.9414C10.9084 13.2566 10.1987 13.3663 9.5065 13.255C8.81428 13.1436 8.17481 12.8167 7.67904 12.321C7.18327 11.8252 6.85645 11.1857 6.74507 10.4935C6.63368 9.8013 6.7434 9.09159 7.05862 8.46532C7.37383 7.83905 7.8785 7.32812 8.50083 7.00521C9.12316 6.68229 9.83147 6.56383 10.525 6.66667C11.2324 6.77158 11.8874 7.10123 12.3931 7.60693C12.8988 8.11263 13.2284 8.76757 13.3333 9.47501Z" stroke="#FFC554" stroke-width="2" stroke-linecap="round" stroke-linejoin="round"/>
<path d="M14.5833 5.41675H14.5917" stroke="#FFC554" stroke-width="2" stroke-linecap="round" stroke-linejoin="round"/>
</svg>
