<svg width="20" height="20" viewBox="0 0 20 20" fill="none" xmlns="http://www.w3.org/2000/svg">
<g clip-path="url(#clip0)">
<path d="M19.1667 2.50008C18.3687 3.06298 17.4851 3.4935 16.55 3.77508C16.0481 3.198 15.3811 2.78899 14.6392 2.60335C13.8973 2.41771 13.1163 2.46441 12.4017 2.73712C11.6872 3.00984 11.0737 3.49541 10.6442 4.12818C10.2146 4.76094 9.98976 5.51036 10 6.27508V7.10841C8.53554 7.14639 7.0844 6.82159 5.77585 6.16295C4.4673 5.50431 3.34194 4.53228 2.50001 3.33341C2.50001 3.33341 -0.833323 10.8334 6.66668 14.1667C4.95045 15.3317 2.90597 15.9159 0.833344 15.8334C8.33334 20.0001 17.5 15.8334 17.5 6.25008C17.4992 6.01796 17.4769 5.78641 17.4333 5.55841C18.2838 4.71966 18.884 3.66067 19.1667 2.50008V2.50008Z" stroke="#FFC554" stroke-width="2" stroke-linecap="round" stroke-linejoin="round"/>
</g>
<defs>
<clipPath id="clip0">
<rect width="20" height="20" fill="white"/>
</clipPath>
</defs>
</svg>
